<?xml version="1.0" encoding="UTF-8"?>
<svg width="223px" height="249px" viewBox="0 0 223 249" version="1.1" xmlns="http://www.w3.org/2000/svg" xmlns:xlink="http://www.w3.org/1999/xlink">
    <!-- Generator: Sketch 42 (36781) - http://www.bohemiancoding.com/sketch -->
    <title>navlogo</title>
    <desc>Created with Sketch.</desc>
    <defs>
        <rect id="path-1" x="0.0172175" y="0.8458473" width="18.5358016" height="212.728852" rx="8"></rect>
    </defs>
    <g id="Page-1" stroke="none" stroke-width="1" fill="none" fill-rule="evenodd">
        <g id="navlogo">
            <g id="Page-1">
                <g id="ZtoreLibLogo">
                    <g id="Page-1">
                        <g id="ZtoreLibLogo">
                            <g id="Group">
                                <path d="M170.228792,9.95450676 C131.612539,23.949826 120.799988,38.116151 120.799988,42.3147468 L120.799988,246.475402 C120.799988,250.394091 133.157189,236.678678 173.318092,225.482423 C213.478996,214.286168 201.742047,218.323734 215.332576,213.337548 C219.348666,211.378203 222.437966,206.619795 222.437966,202.421199 L222.437966,3.68766573 C222.746896,-0.231023655 208.845045,-4.04081247 170.228792,9.95450676 Z M170.708601,29.4390531 C174.106832,28.3194276 175.960412,29.1591467 175.960412,30.838585 C175.960412,34.477368 172.562181,47.9128745 172.253251,49.0325 C171.944321,50.1521256 171.326461,50.432032 170.399671,50.7119383 C169.472881,50.9918447 168.546091,51.2717511 168.546091,50.1521256 C168.237161,49.0325 164.838931,37.8362446 164.838931,34.1974616 C164.838931,32.238117 166.692511,30.5586786 170.708601,29.4390531 Z M170.399671,58.8292235 C174.724692,56.8698788 178.122922,58.8292235 178.122922,63.3077256 C178.122922,67.7862278 174.724692,72.8245427 170.399671,74.7838874 C166.074651,76.7432321 162.676421,74.7838874 162.676421,70.3053853 C162.676421,65.8268831 166.074651,60.7885682 170.399671,58.8292235 Z M186.772963,120.968441 C183.065802,120.968441 175.651482,122.647879 170.399671,124.607224 C165.147861,126.566569 157.73354,130.485258 154.02638,133.004415 C155.57103,129.645539 155.57103,125.167037 154.02638,122.927786 C157.73354,122.927786 165.147861,121.80816 170.399671,119.848815 C175.651482,117.889471 183.065802,113.690875 186.772963,111.171717 C185.228313,114.530594 185.228313,118.72919 186.772963,120.968441 Z M175.960412,140.561888 C175.960412,144.200671 172.562181,157.636177 172.253251,159.035709 C171.944321,160.155335 171.326461,160.435241 170.399671,160.715147 C169.472881,160.995054 168.546091,161.554867 168.546091,160.435241 C168.237161,159.315616 164.838931,148.399267 164.838931,144.760484 C164.838931,142.801139 166.692511,141.121701 170.708601,139.722169 C174.106832,138.322637 175.960412,138.882449 175.960412,140.561888 Z M164.838931,103.054432 C164.838931,99.4156493 168.237161,85.7002364 168.546091,84.5806109 C168.855021,83.4609853 169.781811,83.181079 170.399671,82.9011726 C171.326461,82.6212662 172.253251,82.3413598 172.253251,83.181079 C172.562181,84.3007045 175.960412,95.4969599 175.960412,98.8558365 C175.960412,100.535275 174.106832,102.494619 170.708601,103.614245 C166.692511,105.293683 164.838931,104.733871 164.838931,103.054432 Z M145.685269,50.1521256 C147.538849,48.4726873 149.39243,48.1927809 150.31922,48.7525936 C152.1728,50.1521256 157.42461,56.310066 157.73354,56.8698788 C158.3514,57.4296916 157.11568,58.2694107 156.80675,58.5493171 C156.18889,58.8292235 155.2621,59.948849 154.64424,59.3890363 C154.02638,59.1091299 145.994199,55.4703469 144.140619,53.7909086 C143.213829,53.2310958 143.522759,51.8315639 145.685269,50.1521256 Z M150.93708,76.4633257 C151.24601,77.0231385 149.70136,78.142764 149.70136,78.142764 C149.083499,78.7025768 147.229919,79.8222023 146.612059,80.3820151 C145.994199,80.6619215 144.758479,81.5016406 145.376339,79.542296 C145.994199,76.7432321 145.994199,73.6642619 145.994199,73.6642619 C145.994199,73.6642619 145.994199,70.5852916 145.376339,68.3460406 C144.758479,66.6666023 145.994199,66.6666023 146.612059,66.6666023 L149.70136,66.6666023 C149.70136,66.6666023 151.24601,66.6666023 150.93708,67.5063214 C150.62815,68.3460406 150.31922,71.1451044 150.31922,71.9848236 C150.62815,73.3843555 150.62815,75.903513 150.93708,76.4633257 Z M144.140619,96.6165854 C145.994199,93.8175216 154.02638,85.1404236 154.64424,84.3007045 C155.2621,83.4609853 156.18889,83.7408917 156.80675,83.7408917 C157.42461,83.7408917 158.3514,84.0207981 157.73354,84.8605173 C157.11568,85.7002364 152.1728,95.2170535 150.31922,97.736211 C149.39243,99.1357429 147.847779,99.6955556 145.685269,99.4156493 C143.522759,98.8558365 143.213829,98.0161173 144.140619,96.6165854 Z M157.73354,196.263258 C157.11568,197.102977 152.1728,206.899701 150.31922,209.698765 C149.39243,211.098297 147.847779,211.938016 145.685269,211.658109 C143.522759,211.378203 142.904899,210.538484 144.140619,209.138952 C145.994199,206.339888 154.02638,196.823071 154.64424,195.983352 C155.2621,195.143633 156.18889,195.423539 156.80675,195.423539 C157.42461,195.143633 158.3514,195.423539 157.73354,196.263258 Z M145.376339,180.588501 C144.758479,179.188969 145.994199,178.909062 146.612059,178.909062 L149.70136,178.909062 C149.70136,178.909062 151.24601,178.629156 150.93708,179.748782 C150.62815,180.588501 150.31922,183.387565 150.31922,184.227284 C150.31922,185.346909 150.31922,187.866067 150.93708,188.42588 C151.24601,188.985692 149.70136,190.105318 149.70136,190.105318 C149.083499,190.665131 147.229919,192.064663 146.612059,192.624475 C145.994199,193.184288 144.758479,194.024007 145.376339,192.064663 C145.994199,189.265599 145.994199,186.186628 145.994199,186.186628 C145.994199,186.186628 145.994199,182.827752 145.376339,180.588501 Z M156.80675,169.952058 C156.18889,170.511871 155.2621,171.35159 154.64424,171.071684 C154.02638,170.791777 145.994199,167.712807 144.140619,166.313275 C143.213829,165.753462 143.522759,164.35393 145.685269,162.394586 C147.538849,160.715147 149.39243,160.155335 150.31922,160.715147 C152.1728,162.114679 157.42461,167.712807 157.73354,168.27262 C158.3514,168.552526 157.42461,169.392245 156.80675,169.952058 Z M170.708601,214.177267 C166.692511,215.856705 164.838931,215.576799 164.838931,213.617454 C164.838931,209.978671 168.237161,196.263258 168.546091,194.863726 C168.855021,193.744101 169.781811,193.464194 170.399671,192.904382 C171.326461,192.624475 172.253251,192.064663 172.253251,193.184288 C172.562181,194.303914 175.960412,205.220263 175.960412,208.579139 C175.960412,210.81839 174.106832,212.777735 170.708601,214.177267 Z M170.399671,184.50719 C166.074651,186.466535 162.676421,184.50719 162.676421,180.308594 C162.676421,176.109999 166.074651,171.071684 170.399671,169.112339 C174.724692,167.152994 178.122922,169.112339 178.122922,173.590841 C178.122922,177.509531 174.724692,182.547845 170.399671,184.50719 Z M194.805143,190.945037 C192.951563,192.624475 191.097983,193.184288 190.171193,192.624475 C188.317613,191.50485 183.065802,186.186628 182.756872,185.626816 C182.139012,185.067003 183.374732,184.227284 183.683662,183.947377 C184.301522,183.387565 185.228313,182.547845 185.846173,182.827752 C186.464033,183.107658 194.496213,185.906722 196.349793,187.026348 C197.585514,187.866067 197.276584,188.985692 194.805143,190.945037 Z M189.244403,164.35393 C188.935473,163.794118 190.480123,162.674492 190.480123,162.674492 C191.097983,162.114679 192.951563,160.715147 193.569423,160.155335 C194.187283,159.595522 195.423003,159.035709 194.805143,160.715147 C194.187283,163.514211 194.187283,166.313275 194.187283,166.313275 C194.187283,166.313275 194.187283,169.392245 194.805143,171.631496 C195.423003,173.031028 194.187283,173.310935 193.569423,173.310935 C192.951563,173.310935 191.097983,173.310935 190.480123,173.590841 C190.480123,173.590841 188.935473,173.870748 189.244403,173.031028 C189.553333,172.191309 189.862263,169.392245 189.862263,168.552526 C189.553333,167.432901 189.553333,164.913743 189.244403,164.35393 Z M196.658723,145.880109 C194.805143,148.679173 186.772963,157.636177 186.155103,158.475896 C185.537243,159.315616 184.610452,159.035709 183.992592,159.035709 C183.374732,159.035709 182.447942,159.035709 183.065802,157.916084 C183.683662,157.076364 188.626543,147.559547 190.480123,144.760484 C191.406913,143.360952 192.951563,142.521232 195.114073,142.801139 C197.276584,143.640858 197.585514,144.480577 196.658723,145.880109 Z M194.805143,82.3413598 C192.951563,84.0207981 191.097983,84.5806109 190.171193,83.7408917 C188.317613,82.3413598 183.065802,76.7432321 182.756872,76.1834193 C182.139012,75.6236066 183.374732,74.7838874 183.683662,74.503981 C184.301522,74.2240746 185.228313,73.1044491 185.846173,73.6642619 C186.464033,73.9441683 194.496213,77.3030449 196.349793,78.7025768 C197.585514,79.2623896 197.276584,80.6619215 194.805143,82.3413598 Z M189.244403,55.1904405 C188.935473,54.6306277 190.480123,53.7909086 190.480123,53.7909086 C191.097983,53.2310958 192.951563,52.1114703 193.569423,51.5516575 C194.187283,51.2717511 195.423003,50.432032 194.805143,52.1114703 C194.187283,54.9105341 194.187283,57.709598 194.187283,57.709598 C194.187283,57.709598 194.187283,60.7885682 194.805143,63.0278193 C195.423003,64.4273512 194.187283,64.7072576 193.569423,64.7072576 L190.480123,64.7072576 C190.480123,64.7072576 188.935473,64.7072576 189.244403,63.8675384 C189.553333,63.0278193 189.862263,60.5086618 189.862263,59.3890363 C189.553333,58.5493171 189.553333,56.0301596 189.244403,55.1904405 Z M196.658723,37.5563383 C194.805143,40.0754957 186.772963,48.7525936 186.155103,49.5923128 C185.537243,50.432032 184.610452,50.1521256 183.992592,50.1521256 C183.374732,50.1521256 182.447942,49.8722192 183.065802,49.0325 C183.683662,48.1927809 188.626543,39.2357766 190.480123,36.4367127 C191.406913,35.3170872 192.951563,34.477368 195.114073,35.0371808 C197.276584,35.3170872 197.585514,36.1568063 196.658723,37.5563383 Z" id="Shape" fill="#B50A47" fill-rule="nonzero"></path>
                                <path d="M49.5884137,9.95450676 C10.9721604,23.949826 0.159609506,38.116151 0.159609506,42.3147468 L0.159609506,246.475402 C0.159609506,250.394091 12.5168106,236.678678 52.6777139,225.482423 C92.8386173,214.286168 81.1016688,218.323734 94.6921975,213.337548 C98.7082878,211.378203 101.797588,206.619795 101.797588,202.421199 L101.797588,3.68766573 C102.106518,-0.231023655 88.2046669,-4.04081247 49.5884137,9.95450676 Z M50.604504,29.4390531 C54.0027343,28.3194276 55.8563145,29.1591467 55.8563145,30.838585 C55.8563145,34.477368 52.4580842,47.9128745 52.1491541,49.0325 C51.8402241,50.1521256 51.2223641,50.432032 50.295574,50.7119383 C49.3687839,50.9918447 48.4419938,51.2717511 48.4419938,50.1521256 C48.1330638,49.0325 44.7348335,37.8362446 44.7348335,34.1974616 C44.7348335,32.238117 46.5884137,30.5586786 50.604504,29.4390531 Z M50.295574,58.8292235 C54.6205943,56.8698788 58.0188246,58.8292235 58.0188246,63.3077256 C58.0188246,67.7862278 54.6205943,72.8245427 50.295574,74.7838874 C45.9705536,76.7432321 42.5723233,74.7838874 42.5723233,70.3053853 C42.5723233,65.8268831 45.9705536,60.7885682 50.295574,58.8292235 Z M66.6688654,120.968441 C62.961705,120.968441 55.5473844,122.647879 50.295574,124.607224 C45.0437635,126.566569 37.6294429,130.485258 33.9222826,133.004415 C35.4669327,129.645539 35.4669327,125.167037 33.9222826,122.927786 C37.6294429,122.927786 45.0437635,121.80816 50.295574,119.848815 C55.5473844,117.889471 62.961705,113.690875 66.6688654,111.171717 C65.1242152,114.530594 65.1242152,118.72919 66.6688654,120.968441 Z M55.8563145,140.561888 C55.8563145,144.200671 52.4580842,157.636177 52.1491541,159.035709 C51.8402241,160.155335 51.2223641,160.435241 50.295574,160.715147 C49.3687839,160.995054 48.4419938,161.554867 48.4419938,160.435241 C48.1330638,159.315616 44.7348335,148.399267 44.7348335,144.760484 C44.7348335,142.801139 46.5884137,141.121701 50.604504,139.722169 C54.0027343,138.322637 55.8563145,138.882449 55.8563145,140.561888 Z M44.7348335,103.054432 C44.7348335,99.4156493 48.1330638,85.7002364 48.4419938,84.5806109 C48.7509239,83.4609853 49.6777139,83.181079 50.295574,82.9011726 C51.2223641,82.6212662 52.1491541,82.3413598 52.1491541,83.181079 C52.4580842,84.3007045 55.8563145,95.4969599 55.8563145,98.8558365 C55.8563145,100.535275 54.0027343,102.494619 50.604504,103.614245 C46.5884137,105.293683 44.7348335,104.733871 44.7348335,103.054432 Z M25.5811719,50.1521256 C27.4347521,48.4726873 29.2883322,48.1927809 30.2151223,48.7525936 C32.0687025,50.1521256 37.3205129,56.310066 37.6294429,56.8698788 C38.247303,57.4296916 37.0115829,58.2694107 36.7026528,58.5493171 C36.0847928,58.8292235 35.1580027,59.948849 34.5401427,59.3890363 C33.9222826,59.1091299 25.8901019,55.4703469 24.0365218,53.7909086 C23.1097317,53.2310958 23.4186617,51.8315639 25.5811719,50.1521256 Z M30.8329824,76.4633257 C31.1419124,77.0231385 29.5972623,78.142764 29.5972623,78.142764 C28.9794022,78.7025768 27.125822,79.8222023 26.507962,80.3820151 C25.8901019,80.6619215 24.6543818,81.5016406 25.2722419,79.542296 C25.8901019,76.7432321 25.8901019,73.6642619 25.8901019,73.6642619 C25.8901019,73.6642619 25.8901019,70.5852916 25.2722419,68.3460406 C24.6543818,66.6666023 25.8901019,66.6666023 26.507962,66.6666023 L29.5972623,66.6666023 C29.5972623,66.6666023 31.1419124,66.6666023 30.8329824,67.5063214 C30.5240523,68.3460406 30.2151223,71.1451044 30.2151223,71.9848236 C30.5240523,73.3843555 30.5240523,75.903513 30.8329824,76.4633257 Z M24.0365218,96.6165854 C25.8901019,93.8175216 33.9222826,85.1404236 34.5401427,84.3007045 C35.1580027,83.4609853 36.0847928,83.7408917 36.7026528,83.7408917 C37.3205129,83.7408917 38.247303,84.0207981 37.6294429,84.8605173 C37.0115829,85.7002364 32.0687025,95.2170535 30.2151223,97.736211 C29.2883322,99.1357429 27.7436821,99.6955556 25.5811719,99.4156493 C23.4186617,98.8558365 23.1097317,98.0161173 24.0365218,96.6165854 Z M37.6294429,196.263258 C37.0115829,197.102977 32.0687025,206.899701 30.2151223,209.698765 C29.2883322,211.098297 27.7436821,211.938016 25.5811719,211.658109 C23.4186617,211.378203 22.8008017,210.538484 24.0365218,209.138952 C25.8901019,206.339888 33.9222826,196.823071 34.5401427,195.983352 C35.1580027,195.143633 36.0847928,195.423539 36.7026528,195.423539 C37.3205129,195.143633 38.247303,195.423539 37.6294429,196.263258 Z M25.2722419,180.588501 C24.6543818,179.188969 25.8901019,178.909062 26.507962,178.909062 L29.5972623,178.909062 C29.5972623,178.909062 31.1419124,178.629156 30.8329824,179.748782 C30.5240523,180.588501 30.2151223,183.387565 30.2151223,184.227284 C30.2151223,185.346909 30.2151223,187.866067 30.8329824,188.42588 C31.1419124,188.985692 29.5972623,190.105318 29.5972623,190.105318 C28.9794022,190.665131 27.125822,192.064663 26.507962,192.624475 C25.8901019,193.184288 24.6543818,194.024007 25.2722419,192.064663 C25.8901019,189.265599 25.8901019,186.186628 25.8901019,186.186628 C25.8901019,186.186628 25.8901019,182.827752 25.2722419,180.588501 Z M36.7026528,169.952058 C36.0847928,170.511871 35.1580027,171.35159 34.5401427,171.071684 C33.9222826,170.791777 25.8901019,167.712807 24.0365218,166.313275 C23.1097317,165.753462 23.4186617,164.35393 25.5811719,162.394586 C27.4347521,160.715147 29.2883322,160.155335 30.2151223,160.715147 C32.0687025,162.114679 37.3205129,167.712807 37.6294429,168.27262 C38.247303,168.552526 37.3205129,169.392245 36.7026528,169.952058 Z M50.604504,214.177267 C46.5884137,215.856705 44.7348335,215.576799 44.7348335,213.617454 C44.7348335,209.978671 48.1330638,196.263258 48.4419938,194.863726 C48.7509239,193.744101 49.6777139,193.464194 50.295574,192.904382 C51.2223641,192.624475 52.1491541,192.064663 52.1491541,193.184288 C52.4580842,194.303914 55.8563145,205.220263 55.8563145,208.579139 C55.8563145,210.81839 54.0027343,212.777735 50.604504,214.177267 Z M50.295574,184.50719 C45.9705536,186.466535 42.5723233,184.50719 42.5723233,180.308594 C42.5723233,176.109999 45.9705536,171.071684 50.295574,169.112339 C54.6205943,167.152994 58.0188246,169.112339 58.0188246,173.590841 C58.0188246,177.509531 54.6205943,182.547845 50.295574,184.50719 Z M74.701046,190.945037 C72.8474659,192.624475 70.9938857,193.184288 70.0670956,192.624475 C68.2135155,191.50485 62.961705,186.186628 62.652775,185.626816 C62.034915,185.067003 63.2706351,184.227284 63.5795651,183.947377 C64.1974252,183.387565 65.1242152,182.547845 65.7420753,182.827752 C66.3599353,183.107658 74.392116,185.906722 76.2456962,187.026348 C77.4814163,187.866067 77.1724862,188.985692 74.701046,190.945037 Z M69.1403056,164.35393 C68.8313755,163.794118 70.3760257,162.674492 70.3760257,162.674492 C70.9938857,162.114679 72.8474659,160.715147 73.4653259,160.155335 C74.083186,159.595522 75.3189061,159.035709 74.701046,160.715147 C74.083186,163.514211 74.083186,166.313275 74.083186,166.313275 C74.083186,166.313275 74.083186,169.392245 74.701046,171.631496 C75.3189061,173.031028 74.083186,173.310935 73.4653259,173.310935 C72.8474659,173.310935 70.9938857,173.310935 70.3760257,173.590841 C70.3760257,173.590841 68.8313755,173.870748 69.1403056,173.031028 C69.4492356,172.191309 69.7581656,169.392245 69.7581656,168.552526 C69.4492356,167.432901 69.4492356,164.913743 69.1403056,164.35393 Z M76.5546262,145.880109 C74.701046,148.679173 66.6688654,157.636177 66.0510053,158.475896 C65.4331453,159.315616 64.5063552,159.035709 63.8884951,159.035709 C63.2706351,159.035709 62.343845,159.035709 62.961705,157.916084 C63.5795651,157.076364 68.5224455,147.559547 70.3760257,144.760484 C71.3028157,143.360952 72.8474659,142.521232 75.0099761,142.801139 C77.1724862,143.640858 77.4814163,144.480577 76.5546262,145.880109 Z M74.701046,82.3413598 C72.8474659,84.0207981 70.9938857,84.5806109 70.0670956,83.7408917 C68.2135155,82.3413598 62.961705,76.7432321 62.652775,76.1834193 C62.034915,75.6236066 63.2706351,74.7838874 63.5795651,74.503981 C64.1974252,74.2240746 65.1242152,73.1044491 65.7420753,73.6642619 C66.3599353,73.9441683 74.392116,77.3030449 76.2456962,78.7025768 C77.4814163,79.2623896 77.1724862,80.6619215 74.701046,82.3413598 Z M69.1403056,55.1904405 C68.8313755,54.6306277 70.3760257,53.7909086 70.3760257,53.7909086 C70.9938857,53.2310958 72.8474659,52.1114703 73.4653259,51.5516575 C74.083186,51.2717511 75.3189061,50.432032 74.701046,52.1114703 C74.083186,54.9105341 74.083186,57.709598 74.083186,57.709598 C74.083186,57.709598 74.083186,60.7885682 74.701046,63.0278193 C75.3189061,64.4273512 74.083186,64.7072576 73.4653259,64.7072576 L70.3760257,64.7072576 C70.3760257,64.7072576 68.8313755,64.7072576 69.1403056,63.8675384 C69.4492356,63.0278193 69.7581656,60.5086618 69.7581656,59.3890363 C69.4492356,58.5493171 69.4492356,56.0301596 69.1403056,55.1904405 Z M76.5546262,37.5563383 C74.701046,40.0754957 66.6688654,48.7525936 66.0510053,49.5923128 C65.4331453,50.432032 64.5063552,50.1521256 63.8884951,50.1521256 C63.2706351,50.1521256 62.343845,49.8722192 62.961705,49.0325 C63.5795651,48.1927809 68.5224455,39.2357766 70.3760257,36.4367127 C71.3028157,35.3170872 72.8474659,34.477368 75.0099761,35.0371808 C77.1724862,35.3170872 77.4814163,36.1568063 76.5546262,37.5563383 Z" id="Shape-Copy" fill="#B50A47" fill-rule="nonzero" transform="translate(50.981110, 123.615087) scale(-1, 1) translate(-50.981110, -123.615087) "></path>
                                <g id="Rectangle" transform="translate(102.000000, 35.000000)">
                                    <g id="path-1-Clipped">
                                        <g>
                                            <mask id="mask-2" fill="white">
                                                <use xlink:href="#path-1"></use>
                                            </mask>
                                            <g id="path-1"></g>
                                            <rect id="path-1" fill="#B50A47" fill-rule="nonzero" mask="url(#mask-2)" x="0.0172175" y="0.8458473" width="18.5358016" height="212.728852" rx="8"></rect>
                                        </g>
                                    </g>
                                </g>
                            </g>
                        </g>
                    </g>
                </g>
            </g>
        </g>
    </g>
</svg>